<mxfile host="app.diagrams.net" modified="2021-01-05T11:47:06.183Z" agent="5.0 (Windows NT 10.0; Win64; x64) AppleWebKit/537.36 (KHTML, like Gecko) Chrome/87.0.4280.88 Safari/537.36" etag="tZVQko1pPGY5emUN--Lv" version="14.1.8" type="github" pages="2">
  <diagram name="关卡流程图" id="0783ab3e-0a74-02c8-0abd-f7b4e66b4bec">
    <mxGraphModel dx="1038" dy="547" grid="1" gridSize="10" guides="1" tooltips="1" connect="1" arrows="1" fold="1" page="1" pageScale="1" pageWidth="850" pageHeight="1100" background="#ffffff" math="0" shadow="0">
      <root>
        <mxCell id="0" />
        <mxCell id="1" parent="0" />
        <mxCell id="1c1d494c118603dd-1" value="Story" style="swimlane;html=1;childLayout=stackLayout;startSize=20;rounded=0;shadow=0;comic=0;labelBackgroundColor=none;strokeWidth=1;fontFamily=Verdana;fontSize=12;align=center;" parent="1" vertex="1">
          <mxGeometry x="40" y="20" width="750" height="990" as="geometry" />
        </mxCell>
        <mxCell id="1c1d494c118603dd-2" value="Lane 1" style="swimlane;html=1;startSize=20;" parent="1c1d494c118603dd-1" vertex="1">
          <mxGeometry y="20" width="250" height="970" as="geometry" />
        </mxCell>
        <mxCell id="1c1d494c118603dd-34" style="edgeStyle=none;rounded=0;html=1;labelBackgroundColor=none;startArrow=none;startFill=0;startSize=5;endArrow=classicThin;endFill=1;endSize=5;jettySize=auto;orthogonalLoop=1;strokeWidth=1;fontFamily=Verdana;fontSize=12" parent="1c1d494c118603dd-2" source="1c1d494c118603dd-6" target="1c1d494c118603dd-10" edge="1">
          <mxGeometry relative="1" as="geometry" />
        </mxCell>
        <mxCell id="1c1d494c118603dd-6" value="Action" style="rounded=1;whiteSpace=wrap;html=1;shadow=0;comic=0;labelBackgroundColor=none;strokeWidth=1;fontFamily=Verdana;fontSize=12;align=center;arcSize=50;" parent="1c1d494c118603dd-2" vertex="1">
          <mxGeometry x="90" y="220" width="100" height="30" as="geometry" />
        </mxCell>
        <mxCell id="1c1d494c118603dd-7" value="Action" style="rounded=1;whiteSpace=wrap;html=1;shadow=0;comic=0;labelBackgroundColor=none;strokeWidth=1;fontFamily=Verdana;fontSize=12;align=center;arcSize=50;" parent="1c1d494c118603dd-2" vertex="1">
          <mxGeometry x="80" y="335" width="100" height="30" as="geometry" />
        </mxCell>
        <mxCell id="1c1d494c118603dd-35" style="edgeStyle=none;rounded=0;html=1;labelBackgroundColor=none;startArrow=none;startFill=0;startSize=5;endArrow=classicThin;endFill=1;endSize=5;jettySize=auto;orthogonalLoop=1;strokeWidth=1;fontFamily=Verdana;fontSize=12" parent="1c1d494c118603dd-2" source="1c1d494c118603dd-10" target="1c1d494c118603dd-7" edge="1">
          <mxGeometry relative="1" as="geometry" />
        </mxCell>
        <mxCell id="1c1d494c118603dd-10" value="Object" style="rounded=0;whiteSpace=wrap;html=1;shadow=0;comic=0;labelBackgroundColor=none;strokeWidth=1;fontFamily=Verdana;fontSize=12;align=center;arcSize=50;" parent="1c1d494c118603dd-2" vertex="1">
          <mxGeometry x="140" y="280" width="70" height="30" as="geometry" />
        </mxCell>
        <mxCell id="1c1d494c118603dd-46" style="edgeStyle=none;rounded=0;html=1;labelBackgroundColor=none;startArrow=none;startFill=0;startSize=5;endArrow=oval;endFill=0;endSize=5;jettySize=auto;orthogonalLoop=1;strokeWidth=1;fontFamily=Verdana;fontSize=12;dashed=1;" parent="1c1d494c118603dd-2" source="1c1d494c118603dd-21" target="1c1d494c118603dd-6" edge="1">
          <mxGeometry relative="1" as="geometry" />
        </mxCell>
        <mxCell id="1c1d494c118603dd-47" style="edgeStyle=none;rounded=0;html=1;dashed=1;labelBackgroundColor=none;startArrow=none;startFill=0;startSize=5;endArrow=oval;endFill=0;endSize=5;jettySize=auto;orthogonalLoop=1;strokeWidth=1;fontFamily=Verdana;fontSize=12" parent="1c1d494c118603dd-2" source="1c1d494c118603dd-21" target="1c1d494c118603dd-10" edge="1">
          <mxGeometry relative="1" as="geometry" />
        </mxCell>
        <mxCell id="1c1d494c118603dd-21" value="Note" style="shape=note;whiteSpace=wrap;html=1;rounded=0;shadow=0;comic=0;labelBackgroundColor=none;strokeWidth=1;fontFamily=Verdana;fontSize=12;align=center;size=20;" parent="1c1d494c118603dd-2" vertex="1">
          <mxGeometry x="20" y="274" width="85" height="42" as="geometry" />
        </mxCell>
        <mxCell id="1c1d494c118603dd-3" value="Lane 2" style="swimlane;html=1;startSize=20;" parent="1c1d494c118603dd-1" vertex="1">
          <mxGeometry x="250" y="20" width="250" height="970" as="geometry" />
        </mxCell>
        <mxCell id="60571a20871a0731-3" value="" style="whiteSpace=wrap;html=1;rounded=0;shadow=0;comic=0;labelBackgroundColor=none;strokeWidth=1;fillColor=#000000;fontFamily=Verdana;fontSize=12;align=center;rotation=0;" parent="1c1d494c118603dd-3" vertex="1">
          <mxGeometry x="30" y="160" width="147" height="10" as="geometry" />
        </mxCell>
        <mxCell id="1c1d494c118603dd-40" style="edgeStyle=none;rounded=0;html=1;labelBackgroundColor=none;startArrow=none;startFill=0;startSize=5;endArrow=classicThin;endFill=1;endSize=5;jettySize=auto;orthogonalLoop=1;strokeWidth=1;fontFamily=Verdana;fontSize=12" parent="1c1d494c118603dd-3" source="1c1d494c118603dd-11" target="1c1d494c118603dd-15" edge="1">
          <mxGeometry relative="1" as="geometry" />
        </mxCell>
        <mxCell id="1c1d494c118603dd-11" value="Action" style="rounded=1;whiteSpace=wrap;html=1;shadow=0;comic=0;labelBackgroundColor=none;strokeWidth=1;fontFamily=Verdana;fontSize=12;align=center;arcSize=50;" parent="1c1d494c118603dd-3" vertex="1">
          <mxGeometry x="64" y="450" width="100" height="30" as="geometry" />
        </mxCell>
        <mxCell id="1c1d494c118603dd-39" style="edgeStyle=none;rounded=0;html=1;labelBackgroundColor=none;startArrow=none;startFill=0;startSize=5;endArrow=classicThin;endFill=1;endSize=5;jettySize=auto;orthogonalLoop=1;strokeWidth=1;fontFamily=Verdana;fontSize=12" parent="1c1d494c118603dd-3" source="1c1d494c118603dd-12" target="1c1d494c118603dd-11" edge="1">
          <mxGeometry relative="1" as="geometry" />
        </mxCell>
        <mxCell id="1c1d494c118603dd-12" value="" style="whiteSpace=wrap;html=1;rounded=0;shadow=0;comic=0;labelBackgroundColor=none;strokeWidth=1;fillColor=#000000;fontFamily=Verdana;fontSize=12;align=center;rotation=0;" parent="1c1d494c118603dd-3" vertex="1">
          <mxGeometry x="40" y="410" width="147" height="10" as="geometry" />
        </mxCell>
        <mxCell id="1c1d494c118603dd-32" style="edgeStyle=orthogonalEdgeStyle;rounded=0;html=1;entryX=0.25;entryY=0;labelBackgroundColor=none;startArrow=none;startFill=0;startSize=5;endArrow=classicThin;endFill=1;endSize=5;jettySize=auto;orthogonalLoop=1;strokeWidth=1;fontFamily=Verdana;fontSize=12" parent="1c1d494c118603dd-3" source="1c1d494c118603dd-14" target="1c1d494c118603dd-12" edge="1">
          <mxGeometry relative="1" as="geometry" />
        </mxCell>
        <mxCell id="1c1d494c118603dd-14" value="Object" style="rounded=0;whiteSpace=wrap;html=1;shadow=0;comic=0;labelBackgroundColor=none;strokeWidth=1;fontFamily=Verdana;fontSize=12;align=center;arcSize=50;" parent="1c1d494c118603dd-3" vertex="1">
          <mxGeometry x="-40" y="365" width="70" height="30" as="geometry" />
        </mxCell>
        <mxCell id="1c1d494c118603dd-41" style="edgeStyle=none;rounded=0;html=1;labelBackgroundColor=none;startArrow=none;startFill=0;startSize=5;endArrow=classicThin;endFill=1;endSize=5;jettySize=auto;orthogonalLoop=1;strokeWidth=1;fontFamily=Verdana;fontSize=12" parent="1c1d494c118603dd-3" source="1c1d494c118603dd-15" target="1c1d494c118603dd-16" edge="1">
          <mxGeometry relative="1" as="geometry" />
        </mxCell>
        <mxCell id="1c1d494c118603dd-15" value="Object" style="rounded=0;whiteSpace=wrap;html=1;shadow=0;comic=0;labelBackgroundColor=none;strokeWidth=1;fontFamily=Verdana;fontSize=12;align=center;arcSize=50;" parent="1c1d494c118603dd-3" vertex="1">
          <mxGeometry x="125" y="510" width="70" height="30" as="geometry" />
        </mxCell>
        <mxCell id="1c1d494c118603dd-16" value="Action" style="rounded=1;whiteSpace=wrap;html=1;shadow=0;comic=0;labelBackgroundColor=none;strokeWidth=1;fontFamily=Verdana;fontSize=12;align=center;arcSize=50;" parent="1c1d494c118603dd-3" vertex="1">
          <mxGeometry x="85" y="580" width="100" height="30" as="geometry" />
        </mxCell>
        <mxCell id="1c1d494c118603dd-52" style="edgeStyle=none;rounded=0;html=1;dashed=1;labelBackgroundColor=none;startArrow=none;startFill=0;startSize=5;endArrow=oval;endFill=0;endSize=5;jettySize=auto;orthogonalLoop=1;strokeWidth=1;fontFamily=Verdana;fontSize=12" parent="1c1d494c118603dd-3" source="1c1d494c118603dd-23" target="1c1d494c118603dd-11" edge="1">
          <mxGeometry relative="1" as="geometry" />
        </mxCell>
        <mxCell id="1c1d494c118603dd-53" style="edgeStyle=none;rounded=0;html=1;dashed=1;labelBackgroundColor=none;startArrow=none;startFill=0;startSize=5;endArrow=oval;endFill=0;endSize=5;jettySize=auto;orthogonalLoop=1;strokeWidth=1;fontFamily=Verdana;fontSize=12" parent="1c1d494c118603dd-3" source="1c1d494c118603dd-23" target="1c1d494c118603dd-15" edge="1">
          <mxGeometry relative="1" as="geometry" />
        </mxCell>
        <mxCell id="1c1d494c118603dd-23" value="Note" style="shape=note;whiteSpace=wrap;html=1;rounded=0;shadow=0;comic=0;labelBackgroundColor=none;strokeWidth=1;fontFamily=Verdana;fontSize=12;align=center;size=20;" parent="1c1d494c118603dd-3" vertex="1">
          <mxGeometry x="10" y="510" width="90" height="55" as="geometry" />
        </mxCell>
        <mxCell id="1c1d494c118603dd-54" style="edgeStyle=none;rounded=0;html=1;dashed=1;labelBackgroundColor=none;startArrow=none;startFill=0;startSize=5;endArrow=oval;endFill=0;endSize=5;jettySize=auto;orthogonalLoop=1;strokeWidth=1;fontFamily=Verdana;fontSize=12" parent="1c1d494c118603dd-3" source="1c1d494c118603dd-24" target="1c1d494c118603dd-16" edge="1">
          <mxGeometry relative="1" as="geometry" />
        </mxCell>
        <mxCell id="1c1d494c118603dd-24" value="Note" style="shape=note;whiteSpace=wrap;html=1;rounded=0;shadow=0;comic=0;labelBackgroundColor=none;strokeWidth=1;fontFamily=Verdana;fontSize=12;align=center;size=20;" parent="1c1d494c118603dd-3" vertex="1">
          <mxGeometry x="40" y="648" width="105" height="55" as="geometry" />
        </mxCell>
        <mxCell id="60571a20871a0731-8" value="Action" style="rounded=1;whiteSpace=wrap;html=1;shadow=0;comic=0;labelBackgroundColor=none;strokeWidth=1;fontFamily=Verdana;fontSize=12;align=center;arcSize=50;" parent="1c1d494c118603dd-3" vertex="1">
          <mxGeometry x="55" y="100" width="100" height="30" as="geometry" />
        </mxCell>
        <mxCell id="1c1d494c118603dd-28" style="edgeStyle=orthogonalEdgeStyle;rounded=0;html=1;entryX=0.5;entryY=0;labelBackgroundColor=none;startArrow=none;startFill=0;startSize=5;endArrow=classicThin;endFill=1;endSize=5;jettySize=auto;orthogonalLoop=1;strokeWidth=1;fontFamily=Verdana;fontSize=12" parent="1c1d494c118603dd-3" source="60571a20871a0731-8" target="60571a20871a0731-3" edge="1">
          <mxGeometry relative="1" as="geometry">
            <Array as="points">
              <mxPoint x="104" y="125" />
            </Array>
          </mxGeometry>
        </mxCell>
        <mxCell id="4FJfDjch5FDPLJ7McJ2X-11" style="edgeStyle=orthogonalEdgeStyle;rounded=0;orthogonalLoop=1;jettySize=auto;html=1;entryX=0.5;entryY=0;entryDx=0;entryDy=0;" edge="1" parent="1c1d494c118603dd-3" source="4FJfDjch5FDPLJ7McJ2X-1" target="60571a20871a0731-8">
          <mxGeometry relative="1" as="geometry" />
        </mxCell>
        <mxCell id="4FJfDjch5FDPLJ7McJ2X-1" value="" style="shape=umlActor;verticalLabelPosition=bottom;verticalAlign=top;html=1;outlineConnect=0;" vertex="1" parent="1c1d494c118603dd-3">
          <mxGeometry x="185" y="30" width="30" height="60" as="geometry" />
        </mxCell>
        <mxCell id="1c1d494c118603dd-4" value="Lane 3" style="swimlane;html=1;startSize=20;" parent="1c1d494c118603dd-1" vertex="1">
          <mxGeometry x="500" y="20" width="250" height="970" as="geometry" />
        </mxCell>
        <mxCell id="1c1d494c118603dd-33" style="rounded=0;html=1;labelBackgroundColor=none;startArrow=none;startFill=0;startSize=5;endArrow=classicThin;endFill=1;endSize=5;jettySize=auto;orthogonalLoop=1;strokeWidth=1;fontFamily=Verdana;fontSize=12" parent="1c1d494c118603dd-4" source="1c1d494c118603dd-5" target="1c1d494c118603dd-9" edge="1">
          <mxGeometry relative="1" as="geometry" />
        </mxCell>
        <mxCell id="1c1d494c118603dd-5" value="Action" style="rounded=1;whiteSpace=wrap;html=1;shadow=0;comic=0;labelBackgroundColor=none;strokeWidth=1;fontFamily=Verdana;fontSize=12;align=center;arcSize=50;" parent="1c1d494c118603dd-4" vertex="1">
          <mxGeometry x="45" y="208" width="100" height="30" as="geometry" />
        </mxCell>
        <mxCell id="1c1d494c118603dd-38" style="edgeStyle=none;rounded=0;html=1;labelBackgroundColor=none;startArrow=none;startFill=0;startSize=5;endArrow=classicThin;endFill=1;endSize=5;jettySize=auto;orthogonalLoop=1;strokeWidth=1;fontFamily=Verdana;fontSize=12" parent="1c1d494c118603dd-4" source="1c1d494c118603dd-8" target="1c1d494c118603dd-13" edge="1">
          <mxGeometry relative="1" as="geometry" />
        </mxCell>
        <mxCell id="1c1d494c118603dd-8" value="Action" style="rounded=1;whiteSpace=wrap;html=1;shadow=0;comic=0;labelBackgroundColor=none;strokeWidth=1;fontFamily=Verdana;fontSize=12;align=center;arcSize=50;" parent="1c1d494c118603dd-4" vertex="1">
          <mxGeometry x="85" y="330" width="100" height="30" as="geometry" />
        </mxCell>
        <mxCell id="1c1d494c118603dd-37" style="edgeStyle=none;rounded=0;html=1;labelBackgroundColor=none;startArrow=none;startFill=0;startSize=5;endArrow=classicThin;endFill=1;endSize=5;jettySize=auto;orthogonalLoop=1;strokeWidth=1;fontFamily=Verdana;fontSize=12" parent="1c1d494c118603dd-4" source="1c1d494c118603dd-9" target="1c1d494c118603dd-8" edge="1">
          <mxGeometry relative="1" as="geometry" />
        </mxCell>
        <mxCell id="1c1d494c118603dd-9" value="Object" style="rounded=0;whiteSpace=wrap;html=1;shadow=0;comic=0;labelBackgroundColor=none;strokeWidth=1;fontFamily=Verdana;fontSize=12;align=center;arcSize=50;" parent="1c1d494c118603dd-4" vertex="1">
          <mxGeometry x="15" y="268" width="70" height="30" as="geometry" />
        </mxCell>
        <mxCell id="1c1d494c118603dd-13" value="Object" style="rounded=0;whiteSpace=wrap;html=1;shadow=0;comic=0;labelBackgroundColor=none;strokeWidth=1;fontFamily=Verdana;fontSize=12;align=center;arcSize=50;" parent="1c1d494c118603dd-4" vertex="1">
          <mxGeometry x="-35" y="360" width="70" height="30" as="geometry" />
        </mxCell>
        <mxCell id="1c1d494c118603dd-43" style="edgeStyle=none;rounded=0;html=1;labelBackgroundColor=none;startArrow=none;startFill=0;startSize=5;endArrow=classicThin;endFill=1;endSize=5;jettySize=auto;orthogonalLoop=1;strokeWidth=1;fontFamily=Verdana;fontSize=12" parent="1c1d494c118603dd-4" source="1c1d494c118603dd-17" target="1c1d494c118603dd-18" edge="1">
          <mxGeometry relative="1" as="geometry" />
        </mxCell>
        <mxCell id="1c1d494c118603dd-17" value="Object" style="rounded=0;whiteSpace=wrap;html=1;shadow=0;comic=0;labelBackgroundColor=none;strokeWidth=1;fontFamily=Verdana;fontSize=12;align=center;arcSize=50;" parent="1c1d494c118603dd-4" vertex="1">
          <mxGeometry x="-35" y="610" width="70" height="30" as="geometry" />
        </mxCell>
        <mxCell id="1c1d494c118603dd-44" style="edgeStyle=none;rounded=0;html=1;labelBackgroundColor=none;startArrow=none;startFill=0;startSize=5;endArrow=classicThin;endFill=1;endSize=5;jettySize=auto;orthogonalLoop=1;strokeWidth=1;fontFamily=Verdana;fontSize=12" parent="1c1d494c118603dd-4" source="1c1d494c118603dd-18" target="1c1d494c118603dd-19" edge="1">
          <mxGeometry relative="1" as="geometry" />
        </mxCell>
        <mxCell id="1c1d494c118603dd-18" value="Action" style="rounded=1;whiteSpace=wrap;html=1;shadow=0;comic=0;labelBackgroundColor=none;strokeWidth=1;fontFamily=Verdana;fontSize=12;align=center;arcSize=50;" parent="1c1d494c118603dd-4" vertex="1">
          <mxGeometry x="70" y="670" width="100" height="30" as="geometry" />
        </mxCell>
        <mxCell id="1c1d494c118603dd-45" style="edgeStyle=none;rounded=0;html=1;labelBackgroundColor=none;startArrow=none;startFill=0;startSize=5;endArrow=classicThin;endFill=1;endSize=5;jettySize=auto;orthogonalLoop=1;strokeWidth=1;fontFamily=Verdana;fontSize=12" parent="1c1d494c118603dd-4" source="1c1d494c118603dd-19" target="60571a20871a0731-5" edge="1">
          <mxGeometry relative="1" as="geometry" />
        </mxCell>
        <mxCell id="1c1d494c118603dd-19" value="Action" style="rounded=1;whiteSpace=wrap;html=1;shadow=0;comic=0;labelBackgroundColor=none;strokeWidth=1;fontFamily=Verdana;fontSize=12;align=center;arcSize=50;" parent="1c1d494c118603dd-4" vertex="1">
          <mxGeometry x="70" y="810" width="100" height="30" as="geometry" />
        </mxCell>
        <mxCell id="60571a20871a0731-5" value="" style="shape=mxgraph.bpmn.shape;html=1;verticalLabelPosition=bottom;labelBackgroundColor=#ffffff;verticalAlign=top;perimeter=ellipsePerimeter;outline=end;symbol=terminate;rounded=0;shadow=0;comic=0;strokeWidth=1;fontFamily=Verdana;fontSize=12;align=center;" parent="1c1d494c118603dd-4" vertex="1">
          <mxGeometry x="100" y="880" width="40" height="40" as="geometry" />
        </mxCell>
        <mxCell id="1c1d494c118603dd-48" style="edgeStyle=none;rounded=0;html=1;dashed=1;labelBackgroundColor=none;startArrow=none;startFill=0;startSize=5;endArrow=oval;endFill=0;endSize=5;jettySize=auto;orthogonalLoop=1;strokeWidth=1;fontFamily=Verdana;fontSize=12" parent="1c1d494c118603dd-4" source="1c1d494c118603dd-20" target="1c1d494c118603dd-5" edge="1">
          <mxGeometry relative="1" as="geometry" />
        </mxCell>
        <mxCell id="1c1d494c118603dd-49" style="edgeStyle=none;rounded=0;html=1;dashed=1;labelBackgroundColor=none;startArrow=none;startFill=0;startSize=5;endArrow=oval;endFill=0;endSize=5;jettySize=auto;orthogonalLoop=1;strokeWidth=1;fontFamily=Verdana;fontSize=12" parent="1c1d494c118603dd-4" source="1c1d494c118603dd-20" target="1c1d494c118603dd-9" edge="1">
          <mxGeometry relative="1" as="geometry" />
        </mxCell>
        <mxCell id="1c1d494c118603dd-20" value="Note" style="shape=note;whiteSpace=wrap;html=1;rounded=0;shadow=0;comic=0;labelBackgroundColor=none;strokeWidth=1;fontFamily=Verdana;fontSize=12;align=center;size=20;" parent="1c1d494c118603dd-4" vertex="1">
          <mxGeometry x="160" y="256" width="75" height="44" as="geometry" />
        </mxCell>
        <mxCell id="1c1d494c118603dd-50" style="edgeStyle=none;rounded=0;html=1;dashed=1;labelBackgroundColor=none;startArrow=none;startFill=0;startSize=5;endArrow=oval;endFill=0;endSize=5;jettySize=auto;orthogonalLoop=1;strokeWidth=1;fontFamily=Verdana;fontSize=12" parent="1c1d494c118603dd-4" source="1c1d494c118603dd-22" target="1c1d494c118603dd-8" edge="1">
          <mxGeometry relative="1" as="geometry" />
        </mxCell>
        <mxCell id="1c1d494c118603dd-51" style="edgeStyle=none;rounded=0;html=1;dashed=1;labelBackgroundColor=none;startArrow=none;startFill=0;startSize=5;endArrow=oval;endFill=0;endSize=5;jettySize=auto;orthogonalLoop=1;strokeWidth=1;fontFamily=Verdana;fontSize=12" parent="1c1d494c118603dd-4" source="1c1d494c118603dd-22" target="1c1d494c118603dd-13" edge="1">
          <mxGeometry relative="1" as="geometry" />
        </mxCell>
        <mxCell id="1c1d494c118603dd-22" value="Note" style="shape=note;whiteSpace=wrap;html=1;rounded=0;shadow=0;comic=0;labelBackgroundColor=none;strokeWidth=1;fontFamily=Verdana;fontSize=12;align=center;size=20;" parent="1c1d494c118603dd-4" vertex="1">
          <mxGeometry x="110" y="415" width="105" height="55" as="geometry" />
        </mxCell>
        <mxCell id="1c1d494c118603dd-56" style="edgeStyle=none;rounded=0;html=1;dashed=1;labelBackgroundColor=none;startArrow=none;startFill=0;startSize=5;endArrow=oval;endFill=0;endSize=5;jettySize=auto;orthogonalLoop=1;strokeWidth=1;fontFamily=Verdana;fontSize=12" parent="1c1d494c118603dd-4" source="1c1d494c118603dd-25" target="1c1d494c118603dd-18" edge="1">
          <mxGeometry relative="1" as="geometry" />
        </mxCell>
        <mxCell id="1c1d494c118603dd-57" style="edgeStyle=none;rounded=0;html=1;dashed=1;labelBackgroundColor=none;startArrow=none;startFill=0;startSize=5;endArrow=oval;endFill=0;endSize=5;jettySize=auto;orthogonalLoop=1;strokeWidth=1;fontFamily=Verdana;fontSize=12" parent="1c1d494c118603dd-4" source="1c1d494c118603dd-25" target="1c1d494c118603dd-17" edge="1">
          <mxGeometry relative="1" as="geometry" />
        </mxCell>
        <mxCell id="1c1d494c118603dd-25" value="Note" style="shape=note;whiteSpace=wrap;html=1;rounded=0;shadow=0;comic=0;labelBackgroundColor=none;strokeWidth=1;fontFamily=Verdana;fontSize=12;align=center;size=20;" parent="1c1d494c118603dd-4" vertex="1">
          <mxGeometry x="120" y="590" width="115" height="50" as="geometry" />
        </mxCell>
        <mxCell id="1c1d494c118603dd-58" style="edgeStyle=none;rounded=0;html=1;dashed=1;labelBackgroundColor=none;startArrow=none;startFill=0;startSize=5;endArrow=oval;endFill=0;endSize=5;jettySize=auto;orthogonalLoop=1;strokeWidth=1;fontFamily=Verdana;fontSize=12" parent="1c1d494c118603dd-4" source="1c1d494c118603dd-26" target="1c1d494c118603dd-19" edge="1">
          <mxGeometry relative="1" as="geometry" />
        </mxCell>
        <mxCell id="1c1d494c118603dd-26" value="Note" style="shape=note;whiteSpace=wrap;html=1;rounded=0;shadow=0;comic=0;labelBackgroundColor=none;strokeWidth=1;fontFamily=Verdana;fontSize=12;align=center;size=20;" parent="1c1d494c118603dd-4" vertex="1">
          <mxGeometry x="150" y="740" width="95" height="45" as="geometry" />
        </mxCell>
        <mxCell id="1c1d494c118603dd-29" style="edgeStyle=orthogonalEdgeStyle;rounded=0;html=1;exitX=0.75;exitY=1;labelBackgroundColor=none;startArrow=none;startFill=0;startSize=5;endArrow=classicThin;endFill=1;endSize=5;jettySize=auto;orthogonalLoop=1;strokeWidth=1;fontFamily=Verdana;fontSize=12" parent="1c1d494c118603dd-1" source="60571a20871a0731-3" target="1c1d494c118603dd-5" edge="1">
          <mxGeometry relative="1" as="geometry">
            <Array as="points">
              <mxPoint x="390" y="210" />
              <mxPoint x="595" y="210" />
            </Array>
          </mxGeometry>
        </mxCell>
        <mxCell id="1c1d494c118603dd-30" style="edgeStyle=orthogonalEdgeStyle;rounded=0;html=1;exitX=0.25;exitY=1;entryX=0.5;entryY=0;labelBackgroundColor=none;startArrow=none;startFill=0;startSize=5;endArrow=classicThin;endFill=1;endSize=5;jettySize=auto;orthogonalLoop=1;strokeWidth=1;fontFamily=Verdana;fontSize=12" parent="1c1d494c118603dd-1" source="60571a20871a0731-3" target="1c1d494c118603dd-6" edge="1">
          <mxGeometry relative="1" as="geometry">
            <Array as="points">
              <mxPoint x="317" y="210" />
              <mxPoint x="140" y="210" />
            </Array>
          </mxGeometry>
        </mxCell>
        <mxCell id="1c1d494c118603dd-31" style="edgeStyle=orthogonalEdgeStyle;rounded=0;html=1;entryX=0.75;entryY=0;labelBackgroundColor=none;startArrow=none;startFill=0;startSize=5;endArrow=classicThin;endFill=1;endSize=5;jettySize=auto;orthogonalLoop=1;strokeWidth=1;fontFamily=Verdana;fontSize=12" parent="1c1d494c118603dd-1" source="1c1d494c118603dd-13" target="1c1d494c118603dd-12" edge="1">
          <mxGeometry relative="1" as="geometry" />
        </mxCell>
        <mxCell id="1c1d494c118603dd-36" style="edgeStyle=none;rounded=0;html=1;labelBackgroundColor=none;startArrow=none;startFill=0;startSize=5;endArrow=classicThin;endFill=1;endSize=5;jettySize=auto;orthogonalLoop=1;strokeWidth=1;fontFamily=Verdana;fontSize=12" parent="1c1d494c118603dd-1" source="1c1d494c118603dd-7" target="1c1d494c118603dd-14" edge="1">
          <mxGeometry relative="1" as="geometry" />
        </mxCell>
        <mxCell id="1c1d494c118603dd-42" style="edgeStyle=none;rounded=0;html=1;labelBackgroundColor=none;startArrow=none;startFill=0;startSize=5;endArrow=classicThin;endFill=1;endSize=5;jettySize=auto;orthogonalLoop=1;strokeWidth=1;fontFamily=Verdana;fontSize=12" parent="1c1d494c118603dd-1" source="1c1d494c118603dd-16" target="1c1d494c118603dd-17" edge="1">
          <mxGeometry relative="1" as="geometry" />
        </mxCell>
        <mxCell id="1c1d494c118603dd-55" style="edgeStyle=none;rounded=0;html=1;dashed=1;labelBackgroundColor=none;startArrow=none;startFill=0;startSize=5;endArrow=oval;endFill=0;endSize=5;jettySize=auto;orthogonalLoop=1;strokeWidth=1;fontFamily=Verdana;fontSize=12" parent="1c1d494c118603dd-1" source="1c1d494c118603dd-24" target="1c1d494c118603dd-17" edge="1">
          <mxGeometry relative="1" as="geometry" />
        </mxCell>
      </root>
    </mxGraphModel>
  </diagram>
  <diagram id="u-3SGFVt6bXm1wKnTA7Y" name="关卡平面图">
    <mxGraphModel dx="1038" dy="547" grid="1" gridSize="10" guides="1" tooltips="1" connect="1" arrows="1" fold="1" page="1" pageScale="1" pageWidth="827" pageHeight="1169" math="0" shadow="0">
      <root>
        <mxCell id="XgIhkhRpNkxptAdi_ztU-0" />
        <mxCell id="XgIhkhRpNkxptAdi_ztU-1" parent="XgIhkhRpNkxptAdi_ztU-0" />
        <mxCell id="XgIhkhRpNkxptAdi_ztU-3" value="" style="rounded=0;whiteSpace=wrap;html=1;" vertex="1" parent="XgIhkhRpNkxptAdi_ztU-1">
          <mxGeometry x="100" y="130" width="930" height="560" as="geometry" />
        </mxCell>
        <mxCell id="XgIhkhRpNkxptAdi_ztU-4" value="&lt;span style=&quot;font-size: 20px&quot;&gt;典狱长房间&lt;/span&gt;" style="rounded=0;whiteSpace=wrap;html=1;" vertex="1" parent="XgIhkhRpNkxptAdi_ztU-1">
          <mxGeometry x="114" y="265" width="300" height="110" as="geometry" />
        </mxCell>
        <mxCell id="XgIhkhRpNkxptAdi_ztU-5" value="&lt;span style=&quot;font-size: 20px&quot;&gt;浴室&lt;/span&gt;" style="rounded=0;whiteSpace=wrap;html=1;" vertex="1" parent="XgIhkhRpNkxptAdi_ztU-1">
          <mxGeometry x="114" y="410" width="300" height="110" as="geometry" />
        </mxCell>
        <mxCell id="XgIhkhRpNkxptAdi_ztU-6" value="&lt;font style=&quot;font-size: 20px&quot;&gt;医生房间&lt;/font&gt;" style="rounded=0;whiteSpace=wrap;html=1;" vertex="1" parent="XgIhkhRpNkxptAdi_ztU-1">
          <mxGeometry x="114" y="560" width="300" height="110" as="geometry" />
        </mxCell>
        <mxCell id="XgIhkhRpNkxptAdi_ztU-12" value="" style="shape=process;whiteSpace=wrap;html=1;backgroundOutline=1;rotation=90;" vertex="1" parent="XgIhkhRpNkxptAdi_ztU-1">
          <mxGeometry x="380" y="312.5" width="60" height="15" as="geometry" />
        </mxCell>
        <mxCell id="XgIhkhRpNkxptAdi_ztU-13" value="" style="shape=process;whiteSpace=wrap;html=1;backgroundOutline=1;rotation=90;" vertex="1" parent="XgIhkhRpNkxptAdi_ztU-1">
          <mxGeometry x="380" y="457.5" width="60" height="15" as="geometry" />
        </mxCell>
        <mxCell id="XgIhkhRpNkxptAdi_ztU-14" value="" style="shape=process;whiteSpace=wrap;html=1;backgroundOutline=1;rotation=90;" vertex="1" parent="XgIhkhRpNkxptAdi_ztU-1">
          <mxGeometry x="380" y="607.5" width="60" height="15" as="geometry" />
        </mxCell>
        <mxCell id="XgIhkhRpNkxptAdi_ztU-23" value="&lt;span style=&quot;font-size: 20px&quot;&gt;展览厅&lt;/span&gt;" style="shape=partialRectangle;whiteSpace=wrap;html=1;bottom=0;right=0;fillColor=none;" vertex="1" parent="XgIhkhRpNkxptAdi_ztU-1">
          <mxGeometry x="520" y="376.25" width="180" height="183.75" as="geometry" />
        </mxCell>
        <mxCell id="XgIhkhRpNkxptAdi_ztU-31" value="&lt;span style=&quot;font-size: 20px&quot;&gt;客房1&lt;/span&gt;" style="rounded=0;whiteSpace=wrap;html=1;" vertex="1" parent="XgIhkhRpNkxptAdi_ztU-1">
          <mxGeometry x="790" y="155" width="220" height="110" as="geometry" />
        </mxCell>
        <mxCell id="XgIhkhRpNkxptAdi_ztU-32" value="" style="shape=process;whiteSpace=wrap;html=1;backgroundOutline=1;rotation=90;" vertex="1" parent="XgIhkhRpNkxptAdi_ztU-1">
          <mxGeometry x="760" y="202.5" width="60" height="15" as="geometry" />
        </mxCell>
        <mxCell id="XgIhkhRpNkxptAdi_ztU-33" value="&lt;span style=&quot;font-size: 20px&quot;&gt;客房2&lt;/span&gt;" style="rounded=0;whiteSpace=wrap;html=1;" vertex="1" parent="XgIhkhRpNkxptAdi_ztU-1">
          <mxGeometry x="790" y="290" width="220" height="110" as="geometry" />
        </mxCell>
        <mxCell id="XgIhkhRpNkxptAdi_ztU-34" value="" style="shape=process;whiteSpace=wrap;html=1;backgroundOutline=1;rotation=90;" vertex="1" parent="XgIhkhRpNkxptAdi_ztU-1">
          <mxGeometry x="760" y="337.5" width="60" height="15" as="geometry" />
        </mxCell>
        <mxCell id="XgIhkhRpNkxptAdi_ztU-35" value="&lt;span style=&quot;font-size: 20px&quot;&gt;客房3&lt;/span&gt;" style="rounded=0;whiteSpace=wrap;html=1;" vertex="1" parent="XgIhkhRpNkxptAdi_ztU-1">
          <mxGeometry x="790" y="428.75" width="220" height="110" as="geometry" />
        </mxCell>
        <mxCell id="XgIhkhRpNkxptAdi_ztU-36" value="" style="shape=process;whiteSpace=wrap;html=1;backgroundOutline=1;rotation=90;" vertex="1" parent="XgIhkhRpNkxptAdi_ztU-1">
          <mxGeometry x="760" y="476.25" width="60" height="15" as="geometry" />
        </mxCell>
        <mxCell id="XgIhkhRpNkxptAdi_ztU-38" value="&lt;span style=&quot;font-size: 20px&quot;&gt;盥洗室&lt;/span&gt;" style="shape=partialRectangle;whiteSpace=wrap;html=1;bottom=0;right=0;fillColor=none;rotation=0;direction=south;" vertex="1" parent="XgIhkhRpNkxptAdi_ztU-1">
          <mxGeometry x="520" y="265" width="180" height="110" as="geometry" />
        </mxCell>
        <mxCell id="XgIhkhRpNkxptAdi_ztU-41" value="" style="endArrow=none;html=1;entryX=0;entryY=1;entryDx=0;entryDy=0;exitX=0.595;exitY=1.002;exitDx=0;exitDy=0;exitPerimeter=0;" edge="1" parent="XgIhkhRpNkxptAdi_ztU-1" source="XgIhkhRpNkxptAdi_ztU-38" target="XgIhkhRpNkxptAdi_ztU-38">
          <mxGeometry width="50" height="50" relative="1" as="geometry">
            <mxPoint x="570" y="390" as="sourcePoint" />
            <mxPoint x="620" y="340" as="targetPoint" />
          </mxGeometry>
        </mxCell>
      </root>
    </mxGraphModel>
  </diagram>
</mxfile>
